<svg xmlns="http://www.w3.org/2000/svg" width="1400" height="1080" viewBox="0 0 1400 1080"><rect x="0" y="0" width="1400" height="1080" rx="9" fill="#1e1e28" stroke="none" stroke-width="2"/><text x="22" y="28" fill="#d8d5c5" font-family="JetBrains Mono,monospace" font-size="16" font-weight="600" text-anchor="start">06 · Queue workbench</text><text x="1378" y="28" fill="#93939f" font-family="JetBrains Mono,monospace" font-size="12" font-weight="400" text-anchor="end">EXPERIMENTAL · design study</text><rect x="20" y="46" width="1360" height="68" rx="9" fill="#22222d" stroke="#454550" stroke-width="2"/><text x="36" y="71" fill="#8ca9e3" font-family="JetBrains Mono,monospace" font-size="13" font-weight="600" text-anchor="start">S T A R / A M P</text><text x="1364" y="71" fill="#93939f" font-family="JetBrains Mono,monospace" font-size="12" font-weight="400" text-anchor="end">Library   Files   Playlists   Activity   Equalizer   Settings</text><rect x="20" y="126" width="1360" height="172" rx="9" fill="#22222d" stroke="#454550" stroke-width="2"/><text x="36" y="151" fill="#8ca9e3" font-family="JetBrains Mono,monospace" font-size="13" font-weight="600" text-anchor="start">ALBUM</text><text x="1364" y="151" fill="#93939f" font-family="JetBrains Mono,monospace" font-size="12" font-weight="400" text-anchor="end">settings   close</text><rect x="36" y="168" width="110" height="110" rx="12" fill="#24394c" stroke="none" stroke-width="2"/><defs><clipPath id="cover-36-168-110"><rect x="36" y="168" width="110" height="110" rx="12"/></clipPath></defs><g clip-path="url(#cover-36-168-110)"><path d="M36,217.5 Q74.5,190.0 107.5,223.0 T146,206.5" fill="none" stroke="#7ca9bf" stroke-opacity="0.2" stroke-width="2"/><path d="M36,225.2 Q74.5,197.7 107.5,230.70000000000002 T146,214.2" fill="none" stroke="#7ca9bf" stroke-opacity="0.28" stroke-width="2"/><path d="M36,232.9 Q74.5,205.4 107.5,238.4 T146,221.9" fill="none" stroke="#7ca9bf" stroke-opacity="0.36" stroke-width="2"/><path d="M36,240.60000000000002 Q74.5,213.1 107.5,246.1 T146,229.60000000000002" fill="none" stroke="#7ca9bf" stroke-opacity="0.44" stroke-width="2"/><path d="M36,248.3 Q74.5,220.8 107.5,253.8 T146,237.3" fill="none" stroke="#7ca9bf" stroke-opacity="0.52" stroke-width="2"/><path d="M36,256.0 Q74.5,228.5 107.5,261.5 T146,245.0" fill="none" stroke="#7ca9bf" stroke-opacity="0.6000000000000001" stroke-width="2"/><path d="M36,263.70000000000005 Q74.5,236.20000000000002 107.5,269.2 T146,252.7" fill="none" stroke="#7ca9bf" stroke-opacity="0.6799999999999999" stroke-width="2"/><text x="91.0" y="192.2" fill="#d4e3ed" font-family="JetBrains Mono,monospace" font-size="11" font-weight="600" text-anchor="middle">O C E A N S</text></g><text x="162" y="191" fill="#8ca9e3" font-family="JetBrains Mono,monospace" font-size="16" font-weight="600" text-anchor="start">Oceans</text><text x="162" y="215" fill="#d8d5c5" font-family="JetBrains Mono,monospace" font-size="13" font-weight="400" text-anchor="start">Terra Atlantica · 2025</text><text x="162" y="238" fill="#93939f" font-family="JetBrains Mono,monospace" font-size="12" font-weight="400" text-anchor="start">11 tracks · 49:17 · FLAC</text><text x="162" y="262" fill="#93939f" font-family="JetBrains Mono,monospace" font-size="12" font-weight="400" text-anchor="start">embedded 1/2   ‹   ›</text><rect x="20" y="310" width="896" height="396" rx="9" fill="#22222d" stroke="#454550" stroke-width="2"/><text x="36" y="335" fill="#8ca9e3" font-family="JetBrains Mono,monospace" font-size="13" font-weight="600" text-anchor="start">PLAYLIST · Oceans</text><text x="900" y="335" fill="#93939f" font-family="JetBrains Mono,monospace" font-size="12" font-weight="400" text-anchor="end">sorting   gravity   settings   close</text><text x="36" y="360" fill="#93939f" font-family="JetBrains Mono,monospace" font-size="12" font-weight="400" text-anchor="start">11 tracks · 49:17</text><text x="900" y="360" fill="#93939f" font-family="JetBrains Mono,monospace" font-size="12" font-weight="400" text-anchor="end">1 / 11</text><rect x="28" y="368" width="880" height="28" rx="5" fill="#343b50" stroke="none" stroke-width="2"/><text x="38" y="385" fill="#8ca9e3" font-family="JetBrains Mono,monospace" font-size="12" font-weight="400" text-anchor="start">▶</text><text x="73" y="385" fill="#d8d5c5" font-family="JetBrains Mono,monospace" font-size="13" font-weight="400" text-anchor="start">Through the Water and the Waves</text><text x="898" y="385" fill="#93939f" font-family="JetBrains Mono,monospace" font-size="12" font-weight="400" text-anchor="end">04:58</text><text x="38" y="415" fill="#93939f" font-family="JetBrains Mono,monospace" font-size="12" font-weight="400" text-anchor="start">02</text><text x="73" y="415" fill="#d8d5c5" font-family="JetBrains Mono,monospace" font-size="13" font-weight="400" text-anchor="start">Turn of the Tide</text><text x="898" y="415" fill="#93939f" font-family="JetBrains Mono,monospace" font-size="12" font-weight="400" text-anchor="end">05:25</text><text x="38" y="445" fill="#93939f" font-family="JetBrains Mono,monospace" font-size="12" font-weight="400" text-anchor="start">03</text><text x="73" y="445" fill="#d8d5c5" font-family="JetBrains Mono,monospace" font-size="13" font-weight="400" text-anchor="start">Stranger in the Dark</text><text x="898" y="445" fill="#93939f" font-family="JetBrains Mono,monospace" font-size="12" font-weight="400" text-anchor="end">04:36</text><text x="38" y="475" fill="#93939f" font-family="JetBrains Mono,monospace" font-size="12" font-weight="400" text-anchor="start">04</text><text x="73" y="475" fill="#d8d5c5" font-family="JetBrains Mono,monospace" font-size="13" font-weight="400" text-anchor="start">Now and Forever</text><text x="898" y="475" fill="#93939f" font-family="JetBrains Mono,monospace" font-size="12" font-weight="400" text-anchor="end">04:12</text><text x="38" y="505" fill="#93939f" font-family="JetBrains Mono,monospace" font-size="12" font-weight="400" text-anchor="start">05</text><text x="73" y="505" fill="#d8d5c5" font-family="JetBrains Mono,monospace" font-size="13" font-weight="400" text-anchor="start">When Blue Turns to Gray</text><text x="898" y="505" fill="#93939f" font-family="JetBrains Mono,monospace" font-size="12" font-weight="400" text-anchor="end">05:31</text><text x="38" y="535" fill="#93939f" font-family="JetBrains Mono,monospace" font-size="12" font-weight="400" text-anchor="start">06</text><text x="73" y="535" fill="#d8d5c5" font-family="JetBrains Mono,monospace" font-size="13" font-weight="400" text-anchor="start">Take Me Home</text><text x="898" y="535" fill="#93939f" font-family="JetBrains Mono,monospace" font-size="12" font-weight="400" text-anchor="end">04:42</text><text x="38" y="565" fill="#93939f" font-family="JetBrains Mono,monospace" font-size="12" font-weight="400" text-anchor="start">07</text><text x="73" y="565" fill="#d8d5c5" font-family="JetBrains Mono,monospace" font-size="13" font-weight="400" text-anchor="start">The Longest Night</text><text x="898" y="565" fill="#93939f" font-family="JetBrains Mono,monospace" font-size="12" font-weight="400" text-anchor="end">05:18</text><text x="38" y="595" fill="#93939f" font-family="JetBrains Mono,monospace" font-size="12" font-weight="400" text-anchor="start">08</text><text x="73" y="595" fill="#d8d5c5" font-family="JetBrains Mono,monospace" font-size="13" font-weight="400" text-anchor="start">The Shore</text><text x="898" y="595" fill="#93939f" font-family="JetBrains Mono,monospace" font-size="12" font-weight="400" text-anchor="end">03:56</text><text x="38" y="625" fill="#93939f" font-family="JetBrains Mono,monospace" font-size="12" font-weight="400" text-anchor="start">09</text><text x="73" y="625" fill="#d8d5c5" font-family="JetBrains Mono,monospace" font-size="13" font-weight="400" text-anchor="start">Ocean of Dreams</text><text x="898" y="625" fill="#93939f" font-family="JetBrains Mono,monospace" font-size="12" font-weight="400" text-anchor="end">05:49</text><rect x="928" y="310" width="452" height="190" rx="9" fill="#22222d" stroke="#454550" stroke-width="2"/><text x="944" y="335" fill="#8ca9e3" font-family="JetBrains Mono,monospace" font-size="13" font-weight="600" text-anchor="start">EQUALIZER</text><text x="1364" y="335" fill="#93939f" font-family="JetBrains Mono,monospace" font-size="12" font-weight="400" text-anchor="end">settings   close</text><text x="944" y="362" fill="#8ca9e3" font-family="JetBrains Mono,monospace" font-size="12" font-weight="400" text-anchor="start">ON   ‹ Reference ›</text><text x="944" y="393" fill="#d8d5c5" font-family="JetBrains Mono,monospace" font-size="12" font-weight="400" text-anchor="start">Peaking   80 Hz   +2.0 dB</text><text x="944" y="419" fill="#d8d5c5" font-family="JetBrains Mono,monospace" font-size="12" font-weight="400" text-anchor="start">Peaking  1.2 kHz  -1.5 dB</text><text x="944" y="445" fill="#d8d5c5" font-family="JetBrains Mono,monospace" font-size="12" font-weight="400" text-anchor="start">Shelf    8.0 kHz  +1.0 dB</text><rect x="928" y="512" width="452" height="194" rx="9" fill="#22222d" stroke="#454550" stroke-width="2"/><text x="944" y="537" fill="#8ca9e3" font-family="JetBrains Mono,monospace" font-size="13" font-weight="600" text-anchor="start">ACTIVITY</text><text x="1364" y="537" fill="#93939f" font-family="JetBrains Mono,monospace" font-size="12" font-weight="400" text-anchor="end">settings   close</text><text x="944" y="563" fill="#93939f" font-family="JetBrains Mono,monospace" font-size="12" font-weight="400" text-anchor="start">Last.fm ON · ListenBrainz OFF</text><text x="944" y="588" fill="#d8d5c5" font-family="JetBrains Mono,monospace" font-size="12" font-weight="400" text-anchor="start">Through the Water and the Waves</text><text x="1364" y="588" fill="#8ca9e3" font-family="JetBrains Mono,monospace" font-size="12" font-weight="400" text-anchor="end">playing</text><text x="944" y="611" fill="#d8d5c5" font-family="JetBrains Mono,monospace" font-size="12" font-weight="400" text-anchor="start">Turn of the Tide</text><text x="1364" y="611" fill="#93939f" font-family="JetBrains Mono,monospace" font-size="12" font-weight="400" text-anchor="end">sent</text><text x="944" y="634" fill="#d8d5c5" font-family="JetBrains Mono,monospace" font-size="12" font-weight="400" text-anchor="start">Stranger in the Dark</text><text x="1364" y="634" fill="#93939f" font-family="JetBrains Mono,monospace" font-size="12" font-weight="400" text-anchor="end">sent</text><rect x="20" y="718" width="1360" height="60" rx="9" fill="#22222d" stroke="#454550" stroke-width="2"/><text x="38" y="733" fill="#93939f" font-family="JetBrains Mono,monospace" font-size="12" font-weight="400" text-anchor="start">01:09</text><path d="M100,729 L1300,729" fill="none" stroke="#454550" stroke-width="3" stroke-linecap="round"/><path d="M100,729 L376.0,729" fill="none" stroke="#8ca9e3" stroke-width="3" stroke-linecap="round"/><text x="1362" y="733" fill="#93939f" font-family="JetBrains Mono,monospace" font-size="12" font-weight="400" text-anchor="end">04:58</text><rect x="38" y="743" width="32" height="30" rx="6" fill="#292c38" stroke="none" stroke-width="2"/><path d="M58,751 L49,758 L58,765 Z" fill="#d8d5c5"/><path d="M49,751 L49,765" fill="none" stroke="#d8d5c5" stroke-width="2" stroke-linecap="round"/><rect x="80" y="743" width="32" height="30" rx="6" fill="#8ca9e3" stroke="none" stroke-width="2"/><rect x="90" y="751" width="4" height="14" rx="1" fill="#1e1e28" stroke="none" stroke-width="2"/><rect x="98" y="751" width="4" height="14" rx="1" fill="#1e1e28" stroke="none" stroke-width="2"/><rect x="122" y="743" width="32" height="30" rx="6" fill="#292c38" stroke="none" stroke-width="2"/><rect x="132" y="752" width="12" height="12" rx="1" fill="#d8d5c5" stroke="none" stroke-width="2"/><rect x="164" y="743" width="32" height="30" rx="6" fill="#292c38" stroke="none" stroke-width="2"/><path d="M175,751 L184,758 L175,765 Z" fill="#d8d5c5"/><path d="M184,751 L184,765" fill="none" stroke="#d8d5c5" stroke-width="2" stroke-linecap="round"/><text x="226" y="763" fill="#93939f" font-family="JetBrains Mono,monospace" font-size="12" font-weight="400" text-anchor="start">SHUF   REP ALL   FADE</text><text x="1172" y="763" fill="#93939f" font-family="JetBrains Mono,monospace" font-size="12" font-weight="400" text-anchor="start">VOL</text><path d="M1212,758 L1318,758" fill="none" stroke="#454550" stroke-width="4" stroke-linecap="round"/><path d="M1212,758 L1296,758" fill="none" stroke="#8ca9e3" stroke-width="4" stroke-linecap="round"/><text x="1354" y="763" fill="#d8d5c5" font-family="JetBrains Mono,monospace" font-size="12" font-weight="400" text-anchor="end">80</text><path d="M20,787 L1380,787" fill="none" stroke="#454550" stroke-width="1" stroke-linecap="round"/><text x="22" y="806" fill="#93939f" font-family="JetBrains Mono,monospace" font-size="12" font-weight="400" text-anchor="start">? help</text><text x="1378" y="806" fill="#8ca9e3" font-family="JetBrains Mono,monospace" font-size="12" font-weight="400" text-anchor="end">Playing · FLAC · bit-perfect · REP ALL · local</text><text x="22" y="837" fill="#93939f" font-family="JetBrains Mono,monospace" font-size="12" font-weight="600" text-anchor="start">MATCHING FOLD EMBED · complete now-playing</text><rect x="20" y="852" width="1360" height="208" rx="9" fill="#22222d" stroke="#8ca9e3" stroke-width="2"/><text x="36" y="877" fill="#8ca9e3" font-family="JetBrains Mono,monospace" font-size="13" font-weight="600" text-anchor="start">S T A R / A M P</text><text x="1364" y="877" fill="#93939f" font-family="JetBrains Mono,monospace" font-size="12" font-weight="400" text-anchor="end">bit-perfect · FLAC</text><text x="38" y="937" fill="#8ca9e3" font-family="JetBrains Mono,monospace" font-size="40" font-weight="400" text-anchor="start">1:09</text><rect x="175.0" y="918" width="17.944444444444443" height="27" rx="2" fill="#8ca9e3" stroke="none" stroke-width="2"/><path d="M175.0,913 L192.94444444444446,913" fill="none" stroke="#93939f" stroke-width="1" stroke-linecap="round"/><rect x="196.94444444444446" y="914" width="17.944444444444443" height="31" rx="2" fill="#8ca9e3" stroke="none" stroke-width="2"/><path d="M196.94444444444446,909 L214.8888888888889,909" fill="none" stroke="#93939f" stroke-width="1" stroke-linecap="round"/><rect x="218.88888888888889" y="910" width="17.944444444444443" height="35" rx="2" fill="#8ca9e3" stroke="none" stroke-width="2"/><path d="M218.88888888888889,905 L236.83333333333331,905" fill="none" stroke="#93939f" stroke-width="1" stroke-linecap="round"/><rect x="240.83333333333331" y="908" width="17.944444444444443" height="37" rx="2" fill="#8ca9e3" stroke="none" stroke-width="2"/><path d="M240.83333333333331,903 L258.77777777777777,903" fill="none" stroke="#93939f" stroke-width="1" stroke-linecap="round"/><rect x="262.77777777777777" y="908" width="17.944444444444443" height="37" rx="2" fill="#8ca9e3" stroke="none" stroke-width="2"/><path d="M262.77777777777777,903 L280.72222222222223,903" fill="none" stroke="#93939f" stroke-width="1" stroke-linecap="round"/><rect x="284.72222222222223" y="910" width="17.944444444444443" height="35" rx="2" fill="#8ca9e3" stroke="none" stroke-width="2"/><path d="M284.72222222222223,905 L302.6666666666667,905" fill="none" stroke="#93939f" stroke-width="1" stroke-linecap="round"/><rect x="306.66666666666663" y="913" width="17.944444444444443" height="32" rx="2" fill="#8ca9e3" stroke="none" stroke-width="2"/><path d="M306.66666666666663,908 L324.6111111111111,908" fill="none" stroke="#93939f" stroke-width="1" stroke-linecap="round"/><rect x="328.6111111111111" y="917" width="17.944444444444443" height="28" rx="2" fill="#8ca9e3" stroke="none" stroke-width="2"/><path d="M328.6111111111111,912 L346.55555555555554,912" fill="none" stroke="#93939f" stroke-width="1" stroke-linecap="round"/><rect x="350.55555555555554" y="922" width="17.944444444444443" height="23" rx="2" fill="#8ca9e3" stroke="none" stroke-width="2"/><path d="M350.55555555555554,917 L368.5,917" fill="none" stroke="#93939f" stroke-width="1" stroke-linecap="round"/><rect x="372.5" y="925" width="17.944444444444443" height="20" rx="2" fill="#8ca9e3" stroke="none" stroke-width="2"/><path d="M372.5,920 L390.44444444444446,920" fill="none" stroke="#93939f" stroke-width="1" stroke-linecap="round"/><rect x="394.44444444444446" y="928" width="17.944444444444443" height="17" rx="2" fill="#8ca9e3" stroke="none" stroke-width="2"/><path d="M394.44444444444446,923 L412.3888888888889,923" fill="none" stroke="#93939f" stroke-width="1" stroke-linecap="round"/><rect x="416.3888888888889" y="929" width="17.944444444444443" height="16" rx="2" fill="#8ca9e3" stroke="none" stroke-width="2"/><path d="M416.3888888888889,924 L434.33333333333337,924" fill="none" stroke="#93939f" stroke-width="1" stroke-linecap="round"/><rect x="438.3333333333333" y="929" width="17.944444444444443" height="16" rx="2" fill="#8ca9e3" stroke="none" stroke-width="2"/><path d="M438.3333333333333,924 L456.27777777777777,924" fill="none" stroke="#93939f" stroke-width="1" stroke-linecap="round"/><rect x="460.27777777777777" y="928" width="17.944444444444443" height="17" rx="2" fill="#8ca9e3" stroke="none" stroke-width="2"/><path d="M460.27777777777777,923 L478.22222222222223,923" fill="none" stroke="#93939f" stroke-width="1" stroke-linecap="round"/><rect x="482.22222222222223" y="927" width="17.944444444444443" height="18" rx="2" fill="#8ca9e3" stroke="none" stroke-width="2"/><path d="M482.22222222222223,922 L500.1666666666667,922" fill="none" stroke="#93939f" stroke-width="1" stroke-linecap="round"/><rect x="504.1666666666667" y="927" width="17.944444444444443" height="18" rx="2" fill="#8ca9e3" stroke="none" stroke-width="2"/><path d="M504.1666666666667,922 L522.1111111111111,922" fill="none" stroke="#93939f" stroke-width="1" stroke-linecap="round"/><rect x="526.1111111111111" y="927" width="17.944444444444443" height="18" rx="2" fill="#8ca9e3" stroke="none" stroke-width="2"/><path d="M526.1111111111111,922 L544.0555555555555,922" fill="none" stroke="#93939f" stroke-width="1" stroke-linecap="round"/><rect x="548.0555555555555" y="928" width="17.944444444444443" height="17" rx="2" fill="#8ca9e3" stroke="none" stroke-width="2"/><path d="M548.0555555555555,923 L566.0,923" fill="none" stroke="#93939f" stroke-width="1" stroke-linecap="round"/><rect x="570.0" y="929" width="17.944444444444443" height="16" rx="2" fill="#8ca9e3" stroke="none" stroke-width="2"/><path d="M570.0,924 L587.9444444444445,924" fill="none" stroke="#93939f" stroke-width="1" stroke-linecap="round"/><rect x="591.9444444444445" y="932" width="17.944444444444443" height="13" rx="2" fill="#8ca9e3" stroke="none" stroke-width="2"/><path d="M591.9444444444445,927 L609.8888888888889,927" fill="none" stroke="#93939f" stroke-width="1" stroke-linecap="round"/><rect x="613.8888888888889" y="935" width="17.944444444444443" height="10" rx="2" fill="#8ca9e3" stroke="none" stroke-width="2"/><path d="M613.8888888888889,930 L631.8333333333334,930" fill="none" stroke="#93939f" stroke-width="1" stroke-linecap="round"/><rect x="635.8333333333333" y="937" width="17.944444444444443" height="8" rx="2" fill="#8ca9e3" stroke="none" stroke-width="2"/><path d="M635.8333333333333,932 L653.7777777777777,932" fill="none" stroke="#93939f" stroke-width="1" stroke-linecap="round"/><rect x="657.7777777777778" y="938" width="17.944444444444443" height="7" rx="2" fill="#8ca9e3" stroke="none" stroke-width="2"/><path d="M657.7777777777778,933 L675.7222222222223,933" fill="none" stroke="#93939f" stroke-width="1" stroke-linecap="round"/><rect x="679.7222222222222" y="937" width="17.944444444444443" height="8" rx="2" fill="#8ca9e3" stroke="none" stroke-width="2"/><path d="M679.7222222222222,932 L697.6666666666666,932" fill="none" stroke="#93939f" stroke-width="1" stroke-linecap="round"/><rect x="701.6666666666666" y="936" width="17.944444444444443" height="9" rx="2" fill="#8ca9e3" stroke="none" stroke-width="2"/><path d="M701.6666666666666,931 L719.6111111111111,931" fill="none" stroke="#93939f" stroke-width="1" stroke-linecap="round"/><rect x="723.6111111111111" y="935" width="17.944444444444443" height="10" rx="2" fill="#8ca9e3" stroke="none" stroke-width="2"/><path d="M723.6111111111111,930 L741.5555555555555,930" fill="none" stroke="#93939f" stroke-width="1" stroke-linecap="round"/><rect x="745.5555555555555" y="934" width="17.944444444444443" height="11" rx="2" fill="#8ca9e3" stroke="none" stroke-width="2"/><path d="M745.5555555555555,929 L763.5,929" fill="none" stroke="#93939f" stroke-width="1" stroke-linecap="round"/><rect x="767.5" y="933" width="17.944444444444443" height="12" rx="2" fill="#8ca9e3" stroke="none" stroke-width="2"/><path d="M767.5,928 L785.4444444444445,928" fill="none" stroke="#93939f" stroke-width="1" stroke-linecap="round"/><rect x="789.4444444444445" y="930" width="17.944444444444443" height="15" rx="2" fill="#8ca9e3" stroke="none" stroke-width="2"/><path d="M789.4444444444445,925 L807.3888888888889,925" fill="none" stroke="#93939f" stroke-width="1" stroke-linecap="round"/><rect x="811.3888888888889" y="927" width="17.944444444444443" height="18" rx="2" fill="#8ca9e3" stroke="none" stroke-width="2"/><path d="M811.3888888888889,922 L829.3333333333334,922" fill="none" stroke="#93939f" stroke-width="1" stroke-linecap="round"/><rect x="833.3333333333334" y="923" width="17.944444444444443" height="22" rx="2" fill="#8ca9e3" stroke="none" stroke-width="2"/><path d="M833.3333333333334,918 L851.2777777777778,918" fill="none" stroke="#93939f" stroke-width="1" stroke-linecap="round"/><rect x="855.2777777777778" y="919" width="17.944444444444443" height="26" rx="2" fill="#8ca9e3" stroke="none" stroke-width="2"/><path d="M855.2777777777778,914 L873.2222222222223,914" fill="none" stroke="#93939f" stroke-width="1" stroke-linecap="round"/><rect x="877.2222222222222" y="916" width="17.944444444444443" height="29" rx="2" fill="#8ca9e3" stroke="none" stroke-width="2"/><path d="M877.2222222222222,911 L895.1666666666666,911" fill="none" stroke="#93939f" stroke-width="1" stroke-linecap="round"/><rect x="899.1666666666666" y="914" width="17.944444444444443" height="31" rx="2" fill="#8ca9e3" stroke="none" stroke-width="2"/><path d="M899.1666666666666,909 L917.1111111111111,909" fill="none" stroke="#93939f" stroke-width="1" stroke-linecap="round"/><rect x="921.1111111111111" y="913" width="17.944444444444443" height="32" rx="2" fill="#8ca9e3" stroke="none" stroke-width="2"/><path d="M921.1111111111111,908 L939.0555555555555,908" fill="none" stroke="#93939f" stroke-width="1" stroke-linecap="round"/><rect x="943.0555555555555" y="914" width="17.944444444444443" height="31" rx="2" fill="#8ca9e3" stroke="none" stroke-width="2"/><path d="M943.0555555555555,909 L961.0,909" fill="none" stroke="#93939f" stroke-width="1" stroke-linecap="round"/><rect x="965.0" y="917" width="17.944444444444443" height="28" rx="2" fill="#8ca9e3" stroke="none" stroke-width="2"/><path d="M965.0,912 L982.9444444444445,912" fill="none" stroke="#93939f" stroke-width="1" stroke-linecap="round"/><rect x="986.9444444444445" y="920" width="17.944444444444443" height="25" rx="2" fill="#8ca9e3" stroke="none" stroke-width="2"/><path d="M986.9444444444445,915 L1004.8888888888889,915" fill="none" stroke="#93939f" stroke-width="1" stroke-linecap="round"/><rect x="1008.8888888888889" y="923" width="17.944444444444443" height="22" rx="2" fill="#8ca9e3" stroke="none" stroke-width="2"/><path d="M1008.8888888888889,918 L1026.8333333333333,918" fill="none" stroke="#93939f" stroke-width="1" stroke-linecap="round"/><rect x="1030.8333333333335" y="925" width="17.944444444444443" height="20" rx="2" fill="#8ca9e3" stroke="none" stroke-width="2"/><path d="M1030.8333333333335,920 L1048.7777777777778,920" fill="none" stroke="#93939f" stroke-width="1" stroke-linecap="round"/><rect x="1052.7777777777778" y="927" width="17.944444444444443" height="18" rx="2" fill="#8ca9e3" stroke="none" stroke-width="2"/><path d="M1052.7777777777778,922 L1070.7222222222222,922" fill="none" stroke="#93939f" stroke-width="1" stroke-linecap="round"/><rect x="1074.7222222222222" y="926" width="17.944444444444443" height="19" rx="2" fill="#8ca9e3" stroke="none" stroke-width="2"/><path d="M1074.7222222222222,921 L1092.6666666666665,921" fill="none" stroke="#93939f" stroke-width="1" stroke-linecap="round"/><rect x="1096.6666666666665" y="924" width="17.944444444444443" height="21" rx="2" fill="#8ca9e3" stroke="none" stroke-width="2"/><path d="M1096.6666666666665,919 L1114.6111111111109,919" fill="none" stroke="#93939f" stroke-width="1" stroke-linecap="round"/><rect x="1118.611111111111" y="921" width="17.944444444444443" height="24" rx="2" fill="#8ca9e3" stroke="none" stroke-width="2"/><path d="M1118.611111111111,916 L1136.5555555555554,916" fill="none" stroke="#93939f" stroke-width="1" stroke-linecap="round"/><rect x="1140.5555555555557" y="918" width="17.944444444444443" height="27" rx="2" fill="#8ca9e3" stroke="none" stroke-width="2"/><path d="M1140.5555555555557,913 L1158.5,913" fill="none" stroke="#93939f" stroke-width="1" stroke-linecap="round"/><rect x="1162.5" y="915" width="17.944444444444443" height="30" rx="2" fill="#8ca9e3" stroke="none" stroke-width="2"/><path d="M1162.5,910 L1180.4444444444443,910" fill="none" stroke="#93939f" stroke-width="1" stroke-linecap="round"/><rect x="1184.4444444444443" y="913" width="17.944444444444443" height="32" rx="2" fill="#8ca9e3" stroke="none" stroke-width="2"/><path d="M1184.4444444444443,908 L1202.3888888888887,908" fill="none" stroke="#93939f" stroke-width="1" stroke-linecap="round"/><rect x="1206.388888888889" y="913" width="17.944444444444443" height="32" rx="2" fill="#8ca9e3" stroke="none" stroke-width="2"/><path d="M1206.388888888889,908 L1224.3333333333333,908" fill="none" stroke="#93939f" stroke-width="1" stroke-linecap="round"/><rect x="1228.3333333333333" y="915" width="17.944444444444443" height="30" rx="2" fill="#8ca9e3" stroke="none" stroke-width="2"/><path d="M1228.3333333333333,910 L1246.2777777777776,910" fill="none" stroke="#93939f" stroke-width="1" stroke-linecap="round"/><rect x="1250.2777777777778" y="918" width="17.944444444444443" height="27" rx="2" fill="#8ca9e3" stroke="none" stroke-width="2"/><path d="M1250.2777777777778,913 L1268.2222222222222,913" fill="none" stroke="#93939f" stroke-width="1" stroke-linecap="round"/><rect x="1272.2222222222222" y="922" width="17.944444444444443" height="23" rx="2" fill="#8ca9e3" stroke="none" stroke-width="2"/><path d="M1272.2222222222222,917 L1290.1666666666665,917" fill="none" stroke="#93939f" stroke-width="1" stroke-linecap="round"/><rect x="1294.1666666666667" y="926" width="17.944444444444443" height="19" rx="2" fill="#8ca9e3" stroke="none" stroke-width="2"/><path d="M1294.1666666666667,921 L1312.111111111111,921" fill="none" stroke="#93939f" stroke-width="1" stroke-linecap="round"/><rect x="1316.111111111111" y="929" width="17.944444444444443" height="16" rx="2" fill="#8ca9e3" stroke="none" stroke-width="2"/><path d="M1316.111111111111,924 L1334.0555555555554,924" fill="none" stroke="#93939f" stroke-width="1" stroke-linecap="round"/><rect x="1338.0555555555557" y="932" width="17.944444444444443" height="13" rx="2" fill="#8ca9e3" stroke="none" stroke-width="2"/><path d="M1338.0555555555557,927 L1356.0,927" fill="none" stroke="#93939f" stroke-width="1" stroke-linecap="round"/><text x="38" y="972" fill="#d8d5c5" font-family="JetBrains Mono,monospace" font-size="15" font-weight="600" text-anchor="start">Terra Atlantica — Through the Water and the Waves</text><text x="38" y="994" fill="#93939f" font-family="JetBrains Mono,monospace" font-size="12" font-weight="400" text-anchor="start">Oceans · 2025</text><text x="1362" y="994" fill="#93939f" font-family="JetBrains Mono,monospace" font-size="12" font-weight="400" text-anchor="end">1063 kbps · 44.1 kHz · 16-bit · stereo</text><text x="38" y="1016" fill="#93939f" font-family="JetBrains Mono,monospace" font-size="12" font-weight="400" text-anchor="start">01:09</text><path d="M100,1012 L1300,1012" fill="none" stroke="#454550" stroke-width="3" stroke-linecap="round"/><path d="M100,1012 L376.0,1012" fill="none" stroke="#8ca9e3" stroke-width="3" stroke-linecap="round"/><text x="1362" y="1016" fill="#93939f" font-family="JetBrains Mono,monospace" font-size="12" font-weight="400" text-anchor="end">04:58</text><rect x="38" y="1024" width="32" height="30" rx="6" fill="#292c38" stroke="none" stroke-width="2"/><path d="M58,1032 L49,1039 L58,1046 Z" fill="#d8d5c5"/><path d="M49,1032 L49,1046" fill="none" stroke="#d8d5c5" stroke-width="2" stroke-linecap="round"/><rect x="80" y="1024" width="32" height="30" rx="6" fill="#8ca9e3" stroke="none" stroke-width="2"/><rect x="90" y="1032" width="4" height="14" rx="1" fill="#1e1e28" stroke="none" stroke-width="2"/><rect x="98" y="1032" width="4" height="14" rx="1" fill="#1e1e28" stroke="none" stroke-width="2"/><rect x="122" y="1024" width="32" height="30" rx="6" fill="#292c38" stroke="none" stroke-width="2"/><rect x="132" y="1033" width="12" height="12" rx="1" fill="#d8d5c5" stroke="none" stroke-width="2"/><rect x="164" y="1024" width="32" height="30" rx="6" fill="#292c38" stroke="none" stroke-width="2"/><path d="M175,1032 L184,1039 L175,1046 Z" fill="#d8d5c5"/><path d="M184,1032 L184,1046" fill="none" stroke="#d8d5c5" stroke-width="2" stroke-linecap="round"/><text x="226" y="1044" fill="#93939f" font-family="JetBrains Mono,monospace" font-size="12" font-weight="400" text-anchor="start">SHUF   REP ALL   FADE</text><text x="1172" y="1044" fill="#93939f" font-family="JetBrains Mono,monospace" font-size="12" font-weight="400" text-anchor="start">VOL</text><path d="M1212,1039 L1318,1039" fill="none" stroke="#454550" stroke-width="4" stroke-linecap="round"/><path d="M1212,1039 L1296,1039" fill="none" stroke="#8ca9e3" stroke-width="4" stroke-linecap="round"/><text x="1354" y="1044" fill="#d8d5c5" font-family="JetBrains Mono,monospace" font-size="12" font-weight="400" text-anchor="end">80</text></svg>